<?xml version="1.0" encoding="UTF-8" standalone="no"?>
<svg
   xmlns:dc="http://purl.org/dc/elements/1.1/"
   xmlns:cc="http://creativecommons.org/ns#"
   xmlns:rdf="http://www.w3.org/1999/02/22-rdf-syntax-ns#"
   xmlns:svg="http://www.w3.org/2000/svg"
   xmlns="http://www.w3.org/2000/svg"
   xmlns:sodipodi="http://sodipodi.sourceforge.net/DTD/sodipodi-0.dtd"
   xmlns:inkscape="http://www.inkscape.org/namespaces/inkscape"
   sodipodi:docname="projekt.svg"
   inkscape:version="1.0rc1 (09960d6f05, 2020-04-09)"
   id="svg8"
   version="1.1"
   viewBox="0 0 489.35623 40.756195"
   height="40.756195mm"
   width="489.35623mm">
  <defs
     id="defs2" />
  <sodipodi:namedview
     inkscape:document-rotation="0"
     showguides="false"
     inkscape:window-maximized="1"
     inkscape:window-y="27"
     inkscape:window-x="0"
     inkscape:window-height="1136"
     inkscape:window-width="1920"
     fit-margin-bottom="0"
     fit-margin-right="0"
     fit-margin-left="0"
     fit-margin-top="0"
     showgrid="false"
     inkscape:current-layer="layer1"
     inkscape:document-units="mm"
     inkscape:cy="219.11933"
     inkscape:cx="994.41007"
     inkscape:zoom="0.7"
     inkscape:pageshadow="2"
     inkscape:pageopacity="0.0"
     borderopacity="1.0"
     bordercolor="#666666"
     pagecolor="#ffffff"
     id="base" />
  <metadata
     id="metadata5">
    <rdf:RDF>
      <cc:Work
         rdf:about="">
        <dc:format>image/svg+xml</dc:format>
        <dc:type
           rdf:resource="http://purl.org/dc/dcmitype/StillImage" />
        <dc:title />
      </cc:Work>
    </rdf:RDF>
  </metadata>
  <g
     transform="translate(27.096056,-39.436664)"
     id="layer1"
     inkscape:groupmode="layer"
     inkscape:label="Layer 1">
    <path
       inkscape:connector-curvature="0"
       id="path826"
       d="m -18.603205,77.406329 -2.78392,-2.786531 v -4.510249 -4.510244 l -2.854463,-2.857015 -2.854468,-2.857013 2.854468,-2.857014 2.854463,-2.857015 v -4.512826 -4.512827 l 2.857016,-2.854465 2.857011,-2.854464 h 3.34808 c 2.003549,0 3.3480804,0.05342 3.3480804,0.133011 0,0.07316 -0.387406,1.199592 -0.8608967,2.503192 -0.4734977,1.303599 -0.9239367,2.544699 -1.0009727,2.758 l -0.140069,0.387818 h -2.38363 -2.383625 v 4.478863 4.478863 l -2.820526,2.817884 -2.820532,2.817885 2.820532,2.823049 2.820526,2.823049 v 4.546794 4.546792 h 2.382335 c 2.137823,0 2.392319,0.02532 2.479599,0.246794 0.301623,0.765356 1.9072594,5.232502 1.9072594,5.306318 0,0.04834 -1.5395274,0.08788 -3.4211774,0.08788 h -3.421171 z"
       style="fill:#000000;fill-opacity:1;stroke-width:0.1410249" />
    <g
       id="flowRoot828-0"
       style="font-style:normal;font-variant:normal;font-weight:bold;font-stretch:normal;font-size:40px;line-height:1.25;font-family:sans-serif;-inkscape-font-specification:'sans-serif Bold';letter-spacing:0px;word-spacing:0px;fill:#000000;fill-opacity:1;stroke:none"
       transform="matrix(0.26458333,0,0,0.26458333,85.235078,-100.77938)"
       aria-label=" studentský zápočtový  projekt">
      <g
         id="flowRoot906-3"
         style="font-style:normal;font-weight:normal;font-size:40px;line-height:1.25;font-family:sans-serif;letter-spacing:0px;word-spacing:0px;fill:#000000;fill-opacity:1;stroke:none"
         transform="translate(-426,216.57143)"
         aria-label="Studentský zápočtový projekt">
        <g
           id="flowRoot1901"
           style="font-style:normal;font-weight:normal;font-size:40px;line-height:1.25;font-family:sans-serif;letter-spacing:0px;word-spacing:0px;fill:#000000;fill-opacity:1;stroke:none"
           transform="translate(-18.558625,583.95043)"
           aria-label="Studentský zápočtový projekt">
          <path
             id="path1939"
             style="font-style:normal;font-variant:normal;font-weight:bold;font-stretch:normal;font-size:112px;font-family:Consolas;-inkscape-font-specification:'Consolas Bold';fill:#000000;fill-opacity:1"
             d="m 140.06641,-184.66797 q 0,5.85156 -2.1875,10.17188 -2.13282,4.32031 -6.01563,7.16406 -3.88281,2.78906 -9.24219,4.15625 -5.35937,1.36719 -11.70312,1.36719 -5.63281,0 -10.88281,-0.65625 -5.250004,-0.65625 -10.390629,-2.1875 v -13.28907 q 2.515625,0.875 5.25,1.64063 2.734375,0.76562 5.468749,1.36719 2.78906,0.54687 5.52344,0.875 2.73437,0.32812 5.30469,0.32812 3.82812,0 6.50781,-0.65625 2.67969,-0.65625 4.375,-1.80469 1.69531,-1.14843 2.46094,-2.73437 0.76562,-1.58594 0.76562,-3.5 0,-2.625 -1.53125,-4.375 -1.47656,-1.80469 -3.9375,-3.17188 -2.46094,-1.36718 -5.63281,-2.46093 -3.11719,-1.09375 -6.39844,-2.35157 -3.22656,-1.25781 -6.39844,-2.84375 -3.117184,-1.58593 -5.578121,-3.9375 -2.460938,-2.35156 -3.992188,-5.57812 -1.476562,-3.28125 -1.476562,-7.875 0,-4.21094 1.53125,-7.98438 1.53125,-3.77343 4.8125,-6.5625 3.28125,-2.84375 8.421871,-4.48437 5.14063,-1.69531 12.41407,-1.69531 2.13281,0 4.42968,0.21875 2.35157,0.16406 4.59375,0.49218 2.29688,0.27344 4.375,0.71094 2.13282,0.38281 3.88282,0.82031 v 12.30469 q -1.75,-0.65625 -3.82813,-1.20312 -2.07812,-0.54688 -4.32031,-0.92969 -2.1875,-0.4375 -4.42969,-0.65625 -2.24219,-0.21875 -4.26562,-0.21875 -3.55469,0 -6.01563,0.60156 -2.46094,0.54688 -4.04687,1.58594 -1.58594,0.98437 -2.29688,2.46094 -0.71094,1.47656 -0.71094,3.28125 0,2.24218 1.47657,3.88281 1.53125,1.58594 3.99218,2.89844 2.51563,1.25781 5.63282,2.40625 3.17187,1.09375 6.45312,2.40625 3.33594,1.25781 6.45313,2.89843 3.17187,1.64063 5.63281,3.99219 2.51562,2.35156 3.99219,5.57813 1.53125,3.17187 1.53125,7.54687 z" />
          <path
             id="path1941"
             style="font-style:normal;font-variant:normal;font-weight:bold;font-stretch:normal;font-size:112px;font-family:Consolas;-inkscape-font-specification:'Consolas Bold';fill:#000000;fill-opacity:1"
             d="m 199.40234,-163.61328 q -3.60937,0.82031 -7.27343,1.3125 -3.66407,0.49219 -6.94532,0.49219 -5.46875,0 -9.46093,-1.14844 -3.9375,-1.14844 -6.5625,-3.5 -2.57032,-2.35156 -3.82813,-5.96094 -1.20312,-3.66406 -1.20312,-8.69531 v -27.125 h -14.92969 v -10.39063 h 14.92969 v -14.21875 l 13.67187,-3.55468 v 17.77343 h 21.60156 v 10.39063 h -21.60156 v 26.14062 q 0,4.75782 2.1875,7.21875 2.1875,2.40625 7.32813,2.40625 3.28125,0 6.39843,-0.54687 3.11719,-0.54688 5.6875,-1.25781 z" />
          <path
             id="path1943"
             style="font-style:normal;font-variant:normal;font-weight:bold;font-stretch:normal;font-size:112px;font-family:Consolas;-inkscape-font-specification:'Consolas Bold';fill:#000000;fill-opacity:1"
             d="m 228.49609,-218.62891 v 36.20313 q 0,4.53906 1.69532,6.89062 1.69531,2.29688 5.14062,2.29688 3.33594,0 6.39844,-2.73438 3.11719,-2.78906 6.5625,-7.49218 v -35.16407 h 13.34375 v 55.5625 h -11.53906 l -0.32813,-8.20312 q -1.75,2.13281 -3.55469,3.88281 -1.80468,1.75 -3.9375,3.00781 -2.07812,1.20313 -4.59375,1.85938 -2.46093,0.71094 -5.46875,0.71094 -4.26562,0 -7.49218,-1.36719 -3.17188,-1.42188 -5.30469,-3.99219 -2.13281,-2.57031 -3.22656,-6.125 -1.03907,-3.60937 -1.03907,-8.03906 v -37.29688 z" />
          <path
             id="path1945"
             style="font-style:normal;font-variant:normal;font-weight:bold;font-stretch:normal;font-size:112px;font-family:Consolas;-inkscape-font-specification:'Consolas Bold';fill:#000000;fill-opacity:1"
             d="m 311.89453,-163.06641 -0.32812,-8.20312 q -1.75,2.13281 -3.60938,3.88281 -1.85937,1.75 -3.99219,3.00781 -2.13281,1.20313 -4.59375,1.85938 -2.40625,0.71094 -5.35937,0.71094 -4.92188,0 -8.75,-1.96875 -3.82813,-1.96875 -6.45313,-5.57813 -2.57031,-3.66406 -3.9375,-8.85937 -1.36718,-5.19532 -1.36718,-11.59375 0,-7.65625 2.13281,-13.23438 2.1875,-5.63281 6.01562,-9.29687 3.82813,-3.71875 9.07813,-5.46875 5.25,-1.80469 11.42969,-1.80469 2.07812,0 4.15625,0.27344 2.13281,0.27343 3.77343,0.71093 v -21.71093 h 13.34375 v 77.27343 z m -24.39062,-27.34375 q 0,4.59375 0.60156,7.875 0.65625,3.22657 1.85937,5.30469 1.25782,2.07813 3.0625,3.0625 1.80469,0.92969 4.10157,0.92969 3.39062,0 6.45312,-2.73438 3.0625,-2.73437 6.50781,-7.49218 v -24.28125 q -1.58593,-0.60157 -3.9375,-0.98438 -2.29687,-0.38281 -4.64843,-0.38281 -3.22657,0 -5.79688,1.3125 -2.57031,1.3125 -4.42969,3.71875 -1.80468,2.40625 -2.78906,5.90625 -0.98437,3.44531 -0.98437,7.76562 z" />
          <path
             id="path1947"
             style="font-style:normal;font-variant:normal;font-weight:bold;font-stretch:normal;font-size:112px;font-family:Consolas;-inkscape-font-specification:'Consolas Bold';fill:#000000;fill-opacity:1"
             d="m 387.03516,-195.11328 q 0,1.36719 -0.10938,3.55469 -0.0547,2.1875 -0.21875,4.10156 h -36.53125 q 0,3.66406 1.09375,6.45312 1.14844,2.78907 3.17188,4.70313 2.07812,1.85937 4.92187,2.84375 2.89844,0.98437 6.39844,0.98437 4.04687,0 8.64062,-0.60156 4.64844,-0.65625 9.625,-2.07812 v 10.60937 q -2.13281,0.60156 -4.64843,1.09375 -2.51563,0.49219 -5.14063,0.875 -2.625,0.38281 -5.30469,0.54688 -2.67968,0.21875 -5.19531,0.21875 -6.34375,0 -11.375,-1.80469 -5.03125,-1.80469 -8.53125,-5.30469 -3.5,-3.55469 -5.35937,-8.75 -1.85938,-5.19531 -1.85938,-12.03125 0,-6.78125 1.85938,-12.30469 1.85937,-5.57812 5.25,-9.51562 3.39062,-3.99219 8.20312,-6.125 4.86719,-2.1875 10.82813,-2.1875 5.90625,0 10.44531,1.85937 4.53906,1.80469 7.60156,5.08594 3.0625,3.28125 4.64844,7.82031 1.58594,4.53907 1.58594,9.95313 z m -13.5625,-1.91406 q 0.0547,-3.28125 -0.82032,-5.6875 -0.875,-2.46094 -2.40625,-4.04688 -1.47656,-1.58594 -3.5,-2.35156 -1.96875,-0.76563 -4.26562,-0.76563 -5.03125,0 -8.25781,3.39063 -3.22657,3.33594 -3.82813,9.46094 z" />
          <path
             id="path1949"
             style="font-style:normal;font-variant:normal;font-weight:bold;font-stretch:normal;font-size:112px;font-family:Consolas;-inkscape-font-specification:'Consolas Bold';fill:#000000;fill-opacity:1"
             d="m 433.46484,-163.06641 v -36.20312 q 0,-9.13281 -6.78125,-9.13281 -3.39062,0 -6.50781,2.73437 -3.0625,2.73438 -6.50781,7.4375 v 35.16406 h -13.34375 v -55.5625 h 11.53906 l 0.32813,8.20313 q 1.69531,-2.13281 3.5,-3.88281 1.85937,-1.75 3.99218,-2.95313 2.13282,-1.25781 4.59375,-1.91406 2.46094,-0.65625 5.52344,-0.65625 4.26563,0 7.4375,1.42187 3.17188,1.36719 5.30469,3.9375 2.13281,2.51563 3.17187,6.125 1.09375,3.55469 1.09375,7.98438 v 37.29687 z" />
          <path
             id="path1951"
             style="font-style:normal;font-variant:normal;font-weight:bold;font-stretch:normal;font-size:112px;font-family:Consolas;-inkscape-font-specification:'Consolas Bold';fill:#000000;fill-opacity:1"
             d="m 507.83984,-163.61328 q -3.60937,0.82031 -7.27343,1.3125 -3.66407,0.49219 -6.94532,0.49219 -5.46875,0 -9.46093,-1.14844 -3.9375,-1.14844 -6.5625,-3.5 -2.57032,-2.35156 -3.82813,-5.96094 -1.20312,-3.66406 -1.20312,-8.69531 v -27.125 h -14.92969 v -10.39063 h 14.92969 v -14.21875 l 13.67187,-3.55468 v 17.77343 h 21.60156 v 10.39063 h -21.60156 v 26.14062 q 0,4.75782 2.1875,7.21875 2.1875,2.40625 7.32813,2.40625 3.28125,0 6.39843,-0.54687 3.11719,-0.54688 5.6875,-1.25781 z" />
          <path
             id="path1953"
             style="font-style:normal;font-variant:normal;font-weight:bold;font-stretch:normal;font-size:112px;font-family:Consolas;-inkscape-font-specification:'Consolas Bold';fill:#000000;fill-opacity:1"
             d="m 569.52734,-179.41797 q 0,4.75781 -2.13281,8.14844 -2.07812,3.33594 -5.57812,5.46875 -3.44532,2.07812 -7.875,3.00781 -4.375,0.98438 -8.96875,0.98438 -6.125,0 -11.04688,-0.60157 -4.92187,-0.54687 -9.29687,-1.64062 v -12.03125 q 5.14062,2.13281 10.22656,3.11719 5.14062,0.92968 9.67969,0.92968 5.25,0 7.82031,-1.64062 2.625,-1.69531 2.625,-4.375 0,-1.25781 -0.54688,-2.29688 -0.54687,-1.03906 -2.07812,-1.96875 -1.47656,-0.98437 -4.21094,-1.96875 -2.73437,-1.03906 -7.16406,-2.29687 -4.10156,-1.14844 -7.21875,-2.57031 -3.0625,-1.47657 -5.08594,-3.44532 -2.02344,-1.96875 -3.0625,-4.53906 -0.98437,-2.625 -0.98437,-6.125 0,-3.39062 1.53125,-6.39844 1.53125,-3.00781 4.53906,-5.25 3.0625,-2.29687 7.60156,-3.60937 4.53906,-1.3125 10.60938,-1.3125 5.25,0 9.29687,0.54687 4.04688,0.54688 7.16406,1.20313 v 10.88281 q -4.75781,-1.53125 -8.96875,-2.13281 -4.15625,-0.65625 -8.25781,-0.65625 -4.10156,0 -6.61719,1.47656 -2.46093,1.47656 -2.46093,4.10156 0,1.25782 0.49218,2.24219 0.49219,0.98438 1.91407,1.91406 1.47656,0.92969 4.04687,1.96875 2.625,0.98438 6.89063,2.1875 4.8125,1.36719 8.09375,2.95313 3.28125,1.53125 5.25,3.5 2.02343,1.96875 2.89843,4.48437 0.875,2.51563 0.875,5.74219 z" />
          <path
             id="path1955"
             style="font-style:normal;font-variant:normal;font-weight:bold;font-stretch:normal;font-size:112px;font-family:Consolas;-inkscape-font-specification:'Consolas Bold';fill:#000000;fill-opacity:1"
             d="m 619.78516,-163.06641 -20.50782,-27.78125 v 27.78125 h -13.34375 v -77.27343 h 13.34375 v 45.22656 l 19.41407,-23.51563 h 16.67968 l -22.53125,25.32032 24.39063,30.24218 z" />
          <path
             id="path1957"
             style="font-style:normal;font-variant:normal;font-weight:bold;font-stretch:normal;font-size:112px;font-family:Consolas;-inkscape-font-specification:'Consolas Bold';fill:#000000;fill-opacity:1"
             d="m 680.48828,-169.13672 q -2.89844,7.21875 -6.07031,12.63281 -3.11719,5.46875 -6.89063,9.07813 -3.77343,3.66406 -8.42187,5.46875 -4.59375,1.85937 -10.33594,1.85937 -1.36719,0 -3.00781,-0.16406 -1.58594,-0.10937 -3.28125,-0.38281 v -11.32031 q 0.65625,0.10937 1.47656,0.21875 0.875,0.16406 1.80469,0.21875 0.92969,0.10937 1.85937,0.16406 0.98438,0.0547 1.80469,0.0547 2.29688,0 4.26563,-0.875 1.96875,-0.875 3.60937,-2.46094 1.69531,-1.53125 3.0625,-3.71875 1.36719,-2.13281 2.40625,-4.70313 l -22.03906,-55.5625 h 14.875 l 11.53906,31.5 3.44531,10.17188 3.39063,-9.73438 11.64844,-31.9375 h 14.32812 z m -3.60937,-56.875 h -13.34375 l 14.32812,-14.32812 h 18.04688 z m -37.40625,7.38281 z" />
          <path
             id="path1959"
             style="font-style:normal;font-variant:normal;font-weight:bold;font-stretch:normal;font-size:112px;font-family:Consolas;-inkscape-font-specification:'Consolas Bold';fill:#000000;fill-opacity:1"
             d="m 771.05078,-163.06641 v -9.29687 l 27.17969,-34.83594 h -26.52344 v -11.42969 h 44.13281 v 9.40625 l -26.57812,34.39844 h 27.01562 v 11.75781 z" />
          <path
             id="path1961"
             style="font-style:normal;font-variant:normal;font-weight:bold;font-stretch:normal;font-size:112px;font-family:Consolas;-inkscape-font-specification:'Consolas Bold';fill:#000000;fill-opacity:1"
             d="m 866.97266,-163.06641 -0.32813,-7.27343 q -1.75,1.85937 -3.66406,3.44531 -1.91406,1.53125 -4.21094,2.67969 -2.29687,1.14843 -5.03125,1.75 -2.67969,0.65625 -5.90625,0.65625 -4.26562,0 -7.49219,-1.25782 -3.22656,-1.25781 -5.41406,-3.5 -2.1875,-2.24218 -3.33594,-5.41406 -1.09375,-3.17187 -1.09375,-7 0,-3.9375 1.64063,-7.27344 1.69531,-3.33593 5.08594,-5.74218 3.44531,-2.40625 8.53125,-3.77344 5.14062,-1.36719 12.03125,-1.36719 h 7.27343 v -3.33594 q 0,-2.13281 -0.60156,-3.82812 -0.60156,-1.75 -1.96875,-2.95313 -1.3125,-1.20312 -3.44531,-1.85937 -2.13281,-0.65625 -5.25,-0.65625 -4.92188,0 -9.73438,1.14844 -4.75781,1.09375 -9.24218,3.11718 v -10.66406 q 3.99218,-1.58594 9.1875,-2.625 5.25,-1.03906 10.88281,-1.03906 6.17969,0 10.60937,1.20312 4.42969,1.14844 7.27344,3.5 2.89844,2.35157 4.26563,5.90625 1.36718,3.5 1.36718,8.20313 v 37.95312 z m -1.91407,-24.55468 h -8.14843 q -3.39063,0 -5.74219,0.65625 -2.35156,0.65625 -3.82813,1.80468 -1.47656,1.14844 -2.1875,2.67969 -0.65625,1.47656 -0.65625,3.17188 0,3.39062 2.1875,5.19531 2.1875,1.75 5.96094,1.75 2.78906,0 5.79688,-2.02344 3.00781,-2.02344 6.61718,-5.79687 z m -3.11718,-38.39063 h -13.34375 l 14.32812,-14.32812 h 18.04688 z m -37.40625,7.38281 z" />
          <path
             id="path1963"
             style="font-style:normal;font-variant:normal;font-weight:bold;font-stretch:normal;font-size:112px;font-family:Consolas;-inkscape-font-specification:'Consolas Bold';fill:#000000;fill-opacity:1"
             d="m 943.80859,-191.83203 q 0,7.65625 -2.1875,13.23437 -2.13281,5.57813 -6.01562,9.29688 -3.82813,3.66406 -9.07813,5.46875 -5.25,1.75 -11.42968,1.75 -2.07813,0 -4.15625,-0.27344 -2.07813,-0.27344 -3.77344,-0.71094 v 21.71094 h -13.34375 v -77.27344 h 11.53906 l 0.32813,8.20313 q 1.69531,-2.13281 3.5,-3.88281 1.85937,-1.75 3.99218,-2.95313 2.13282,-1.25781 4.59375,-1.91406 2.46094,-0.65625 5.52344,-0.65625 4.92188,0 8.75,1.96875 3.82813,1.96875 6.39844,5.63281 2.625,3.60938 3.99219,8.80469 1.36718,5.14062 1.36718,11.59375 z m -14,0.54687 q 0,-4.59375 -0.65625,-7.82031 -0.65625,-3.22656 -1.91406,-5.30469 -1.20312,-2.07812 -3.00781,-3.00781 -1.75,-0.98437 -4.04688,-0.98437 -3.39062,0 -6.50781,2.73437 -3.0625,2.73438 -6.50781,7.4375 v 24.28125 q 1.58594,0.60156 3.88281,0.98438 2.35156,0.38281 4.75781,0.38281 3.17188,0 5.74219,-1.3125 2.625,-1.3125 4.42969,-3.71875 1.85937,-2.40625 2.84375,-5.85156 0.98437,-3.5 0.98437,-7.82032 z" />
          <path
             id="path1965"
             style="font-style:normal;font-variant:normal;font-weight:bold;font-stretch:normal;font-size:112px;font-family:Consolas;-inkscape-font-specification:'Consolas Bold';fill:#000000;fill-opacity:1"
             d="m 1005.5508,-191.28516 q 0,6.5625 -1.8594,12.03125 -1.8594,5.41407 -5.35937,9.29688 -3.5,3.88281 -8.58594,6.01562 -5.08593,2.13282 -11.59375,2.13282 -6.17968,0 -11.04687,-1.80469 -4.86719,-1.80469 -8.25781,-5.35938 -3.39063,-3.60937 -5.19532,-8.96875 -1.80468,-5.41406 -1.80468,-12.57812 0,-6.61719 1.85937,-12.03125 1.91406,-5.41406 5.41406,-9.24219 3.55469,-3.82812 8.64063,-5.90625 5.08594,-2.13281 11.48437,-2.13281 6.23438,0 11.10157,1.85937 4.86718,1.80469 8.25781,5.41407 3.39063,3.60937 5.14063,8.96875 1.8047,5.30468 1.8047,12.30468 z m -13.89064,0.32813 q 0,-8.64063 -3.28125,-12.96094 -3.22657,-4.375 -9.57032,-4.375 -3.5,0 -5.96093,1.36719 -2.46094,1.36719 -4.04688,3.77344 -1.58594,2.35156 -2.35156,5.52343 -0.71094,3.17188 -0.71094,6.78125 0,8.69532 3.5,13.125 3.5,4.375 9.57031,4.375 3.33594,0 5.79688,-1.3125 2.46094,-1.36718 3.99219,-3.71875 1.53125,-2.40625 2.29687,-5.63281 0.76563,-3.22656 0.76563,-6.94531 z" />
          <path
             id="path1967"
             style="font-style:normal;font-variant:normal;font-weight:bold;font-stretch:normal;font-size:112px;font-family:Consolas;-inkscape-font-specification:'Consolas Bold';fill:#000000;fill-opacity:1"
             d="m 1062.1523,-165.19922 q -3.9375,1.58594 -8.1484,2.35156 -4.2109,0.76563 -8.8047,0.76563 -6.6172,0 -11.8672,-1.80469 -5.25,-1.80469 -8.914,-5.35937 -3.6641,-3.55469 -5.6328,-8.80469 -1.9141,-5.25 -1.9141,-12.14063 0,-6.67187 2.0781,-12.08593 2.1328,-5.41407 5.961,-9.24219 3.8281,-3.82813 9.1875,-5.90625 5.414,-2.07813 12.0312,-2.07813 5.4141,0 9.0781,0.60157 3.7188,0.54687 6.6719,1.42187 v 12.96094 q -3.3906,-1.69531 -7.3828,-2.625 -3.9375,-0.92969 -7.4922,-0.92969 -3.7187,0 -6.6719,1.25781 -2.9531,1.25782 -4.9765,3.5 -2.0235,2.24219 -3.1172,5.46875 -1.0391,3.17188 -1.0391,7 0,3.99219 1.1485,7.16407 1.1484,3.17187 3.2265,5.41406 2.1328,2.1875 5.086,3.39062 2.9531,1.14844 6.5625,1.14844 1.75,0 3.664,-0.21875 1.9688,-0.27344 3.8828,-0.71094 1.9688,-0.49218 3.8282,-1.09375 1.914,-0.60156 3.5546,-1.3125 z m -24.5546,-60.8125 -13.4532,-14.32812 h 11.8672 l 6.7266,6.72656 6.7265,-6.72656 h 11.6485 l -13.4531,14.32812 z m -25.7579,7.38281 z" />
          <path
             id="path1969"
             style="font-style:normal;font-variant:normal;font-weight:bold;font-stretch:normal;font-size:112px;font-family:Consolas;-inkscape-font-specification:'Consolas Bold';fill:#000000;fill-opacity:1"
             d="m 1124.7148,-163.61328 q -3.6093,0.82031 -7.2734,1.3125 -3.6641,0.49219 -6.9453,0.49219 -5.4688,0 -9.4609,-1.14844 -3.9375,-1.14844 -6.5625,-3.5 -2.5704,-2.35156 -3.8282,-5.96094 -1.2031,-3.66406 -1.2031,-8.69531 v -27.125 h -14.9297 v -10.39063 h 14.9297 v -14.21875 l 13.6719,-3.55468 v 17.77343 h 21.6015 v 10.39063 h -21.6015 v 26.14062 q 0,4.75782 2.1875,7.21875 2.1875,2.40625 7.3281,2.40625 3.2813,0 6.3984,-0.54687 3.1172,-0.54688 5.6875,-1.25781 z" />
          <path
             id="path1971"
             style="font-style:normal;font-variant:normal;font-weight:bold;font-stretch:normal;font-size:112px;font-family:Consolas;-inkscape-font-specification:'Consolas Bold';fill:#000000;fill-opacity:1"
             d="m 1190.6133,-191.28516 q 0,6.5625 -1.8594,12.03125 -1.8594,5.41407 -5.3594,9.29688 -3.5,3.88281 -8.5859,6.01562 -5.0859,2.13282 -11.5938,2.13282 -6.1796,0 -11.0468,-1.80469 -4.8672,-1.80469 -8.2578,-5.35938 -3.3907,-3.60937 -5.1954,-8.96875 -1.8046,-5.41406 -1.8046,-12.57812 0,-6.61719 1.8593,-12.03125 1.9141,-5.41406 5.4141,-9.24219 3.5547,-3.82812 8.6406,-5.90625 5.086,-2.13281 11.4844,-2.13281 6.2344,0 11.1016,1.85937 4.8671,1.80469 8.2578,5.41407 3.3906,3.60937 5.1406,8.96875 1.8047,5.30468 1.8047,12.30468 z m -13.8906,0.32813 q 0,-8.64063 -3.2813,-12.96094 -3.2266,-4.375 -9.5703,-4.375 -3.5,0 -5.9609,1.36719 -2.461,1.36719 -4.0469,3.77344 -1.586,2.35156 -2.3516,5.52343 -0.7109,3.17188 -0.7109,6.78125 0,8.69532 3.5,13.125 3.5,4.375 9.5703,4.375 3.3359,0 5.7969,-1.3125 2.4609,-1.36718 3.9922,-3.71875 1.5312,-2.40625 2.2968,-5.63281 0.7657,-3.22656 0.7657,-6.94531 z" />
          <path
             id="path1973"
             style="font-style:normal;font-variant:normal;font-weight:bold;font-stretch:normal;font-size:112px;font-family:Consolas;-inkscape-font-specification:'Consolas Bold';fill:#000000;fill-opacity:1"
             d="m 1233.3242,-163.06641 h -15.3672 l -22.039,-55.5625 h 14.875 l 11.539,31.5 3.4453,10.17188 3.3907,-9.73438 11.6484,-31.9375 h 14.3281 z" />
          <path
             id="path1975"
             style="font-style:normal;font-variant:normal;font-weight:bold;font-stretch:normal;font-size:112px;font-family:Consolas;-inkscape-font-specification:'Consolas Bold';fill:#000000;fill-opacity:1"
             d="m 1297.3633,-169.13672 q -2.8985,7.21875 -6.0703,12.63281 -3.1172,5.46875 -6.8907,9.07813 -3.7734,3.66406 -8.4218,5.46875 -4.5938,1.85937 -10.336,1.85937 -1.3672,0 -3.0078,-0.16406 -1.5859,-0.10937 -3.2812,-0.38281 v -11.32031 q 0.6562,0.10937 1.4765,0.21875 0.875,0.16406 1.8047,0.21875 0.9297,0.10937 1.8594,0.16406 0.9844,0.0547 1.8047,0.0547 2.2969,0 4.2656,-0.875 1.9688,-0.875 3.6094,-2.46094 1.6953,-1.53125 3.0625,-3.71875 1.3672,-2.13281 2.4062,-4.70313 l -22.039,-55.5625 h 14.875 l 11.539,31.5 3.4453,10.17188 3.3907,-9.73438 11.6484,-31.9375 h 14.3281 z m -3.6094,-56.875 h -13.3437 l 14.3281,-14.32812 h 18.0469 z m -37.4062,7.38281 z" />
          <path
             id="path1977"
             style="font-style:normal;font-variant:normal;font-weight:bold;font-stretch:normal;font-size:112px;font-family:Consolas;-inkscape-font-specification:'Consolas Bold';fill:#000000;fill-opacity:1"
             d="m 1437.3086,-191.83203 q 0,7.65625 -2.1875,13.23437 -2.1328,5.57813 -6.0156,9.29688 -3.8282,3.66406 -9.0782,5.46875 -5.25,1.75 -11.4296,1.75 -2.0782,0 -4.1563,-0.27344 -2.0781,-0.27344 -3.7734,-0.71094 v 21.71094 h -13.3438 v -77.27344 h 11.5391 l 0.3281,8.20313 q 1.6953,-2.13281 3.5,-3.88281 1.8594,-1.75 3.9922,-2.95313 2.1328,-1.25781 4.5937,-1.91406 2.461,-0.65625 5.5235,-0.65625 4.9219,0 8.75,1.96875 3.8281,1.96875 6.3984,5.63281 2.625,3.60938 3.9922,8.80469 1.3672,5.14062 1.3672,11.59375 z m -14,0.54687 q 0,-4.59375 -0.6563,-7.82031 -0.6562,-3.22656 -1.914,-5.30469 -1.2031,-2.07812 -3.0078,-3.00781 -1.75,-0.98437 -4.0469,-0.98437 -3.3906,0 -6.5078,2.73437 -3.0625,2.73438 -6.5078,7.4375 v 24.28125 q 1.5859,0.60156 3.8828,0.98438 2.3515,0.38281 4.7578,0.38281 3.1719,0 5.7422,-1.3125 2.625,-1.3125 4.4297,-3.71875 1.8593,-2.40625 2.8437,-5.85156 0.9844,-3.5 0.9844,-7.82032 z" />
          <path
             id="path1979"
             style="font-style:normal;font-variant:normal;font-weight:bold;font-stretch:normal;font-size:112px;font-family:Consolas;-inkscape-font-specification:'Consolas Bold';fill:#000000;fill-opacity:1"
             d="m 1484.7773,-197.02734 q 0.1094,-3.11719 -0.3281,-5.30469 -0.3828,-2.1875 -1.3125,-3.60938 -0.875,-1.42187 -2.1875,-2.07812 -1.3125,-0.65625 -3.0078,-0.65625 -2.9531,0 -6.125,2.46094 -3.1172,2.40625 -6.8906,7.98437 v 35.16406 h -13.6719 v -55.5625 h 12.0859 l 0.4922,8.09375 q 1.3672,-2.13281 3.0625,-3.82812 1.75,-1.69531 3.8282,-2.89844 2.1328,-1.25781 4.7031,-1.91406 2.5703,-0.65625 5.6328,-0.65625 4.2109,0 7.4375,1.47656 3.2812,1.42188 5.4687,4.26563 2.2422,2.84375 3.2813,7.16406 1.0937,4.26562 0.9297,9.89844 z" />
          <path
             id="path1981"
             style="font-style:normal;font-variant:normal;font-weight:bold;font-stretch:normal;font-size:112px;font-family:Consolas;-inkscape-font-specification:'Consolas Bold';fill:#000000;fill-opacity:1"
             d="m 1560.7383,-191.28516 q 0,6.5625 -1.8594,12.03125 -1.8594,5.41407 -5.3594,9.29688 -3.5,3.88281 -8.5859,6.01562 -5.0859,2.13282 -11.5938,2.13282 -6.1796,0 -11.0468,-1.80469 -4.8672,-1.80469 -8.2578,-5.35938 -3.3907,-3.60937 -5.1954,-8.96875 -1.8046,-5.41406 -1.8046,-12.57812 0,-6.61719 1.8593,-12.03125 1.9141,-5.41406 5.4141,-9.24219 3.5547,-3.82812 8.6406,-5.90625 5.086,-2.13281 11.4844,-2.13281 6.2344,0 11.1016,1.85937 4.8671,1.80469 8.2578,5.41407 3.3906,3.60937 5.1406,8.96875 1.8047,5.30468 1.8047,12.30468 z m -13.8906,0.32813 q 0,-8.64063 -3.2813,-12.96094 -3.2266,-4.375 -9.5703,-4.375 -3.5,0 -5.9609,1.36719 -2.461,1.36719 -4.0469,3.77344 -1.586,2.35156 -2.3516,5.52343 -0.7109,3.17188 -0.7109,6.78125 0,8.69532 3.5,13.125 3.5,4.375 9.5703,4.375 3.3359,0 5.7969,-1.3125 2.4609,-1.36718 3.9922,-3.71875 1.5312,-2.40625 2.2968,-5.63281 0.7657,-3.22656 0.7657,-6.94531 z" />
          <path
             id="path1983"
             style="font-style:normal;font-variant:normal;font-weight:bold;font-stretch:normal;font-size:112px;font-family:Consolas;-inkscape-font-specification:'Consolas Bold';fill:#000000;fill-opacity:1"
             d="m 1613.0742,-164.65234 q 0,6.23437 -1.8594,10.82812 -1.8046,4.64844 -5.25,7.65625 -3.3906,3.0625 -8.2031,4.53906 -4.7578,1.53125 -10.664,1.53125 -4.8125,0 -8.9688,-0.82031 -4.1562,-0.82031 -6.8359,-1.96875 v -12.25 q 1.5312,0.82031 3.4453,1.58594 1.9687,0.82031 4.0469,1.42187 2.1328,0.65625 4.3203,0.98438 2.1875,0.38281 4.3203,0.38281 6.0703,0 9.0781,-3.5 3.0078,-3.5 3.0078,-10.28125 v -43.69531 h -26.414 v -10.39063 h 39.9765 z m 1.0938,-69.17969 q 0,1.80469 -0.6563,3.39062 -0.6562,1.58594 -1.8594,2.78907 -1.1484,1.14843 -2.789,1.85937 -1.586,0.65625 -3.4453,0.65625 -1.8594,0 -3.4453,-0.65625 -1.586,-0.71094 -2.7891,-1.85937 -1.1484,-1.20313 -1.8047,-2.78907 -0.6562,-1.58593 -0.6562,-3.39062 0,-1.80469 0.6562,-3.39063 0.6563,-1.58593 1.8047,-2.78906 1.2031,-1.20312 2.7891,-1.85937 1.5859,-0.71094 3.4453,-0.71094 1.8593,0 3.4453,0.71094 1.6406,0.65625 2.789,1.85937 1.2032,1.20313 1.8594,2.78906 0.6563,1.58594 0.6563,3.39063 z" />
          <path
             id="path1985"
             style="font-style:normal;font-variant:normal;font-weight:bold;font-stretch:normal;font-size:112px;font-family:Consolas;-inkscape-font-specification:'Consolas Bold';fill:#000000;fill-opacity:1"
             d="m 1682.4727,-195.11328 q 0,1.36719 -0.1094,3.55469 -0.055,2.1875 -0.2188,4.10156 h -36.5312 q 0,3.66406 1.0937,6.45312 1.1485,2.78907 3.1719,4.70313 2.0781,1.85937 4.9219,2.84375 2.8984,0.98437 6.3984,0.98437 4.0469,0 8.6406,-0.60156 4.6485,-0.65625 9.625,-2.07812 v 10.60937 q -2.1328,0.60156 -4.6484,1.09375 -2.5156,0.49219 -5.1406,0.875 -2.625,0.38281 -5.3047,0.54688 -2.6797,0.21875 -5.1953,0.21875 -6.3438,0 -11.375,-1.80469 -5.0313,-1.80469 -8.5313,-5.30469 -3.5,-3.55469 -5.3593,-8.75 -1.8594,-5.19531 -1.8594,-12.03125 0,-6.78125 1.8594,-12.30469 1.8593,-5.57812 5.25,-9.51562 3.3906,-3.99219 8.2031,-6.125 4.8672,-2.1875 10.8281,-2.1875 5.9063,0 10.4453,1.85937 4.5391,1.80469 7.6016,5.08594 3.0625,3.28125 4.6484,7.82031 1.586,4.53907 1.586,9.95313 z m -13.5625,-1.91406 q 0.055,-3.28125 -0.8204,-5.6875 -0.875,-2.46094 -2.4062,-4.04688 -1.4766,-1.58594 -3.5,-2.35156 -1.9688,-0.76563 -4.2656,-0.76563 -5.0313,0 -8.2578,3.39063 -3.2266,3.33594 -3.8282,9.46094 z" />
          <path
             id="path1987"
             style="font-style:normal;font-variant:normal;font-weight:bold;font-stretch:normal;font-size:112px;font-family:Consolas;-inkscape-font-specification:'Consolas Bold';fill:#000000;fill-opacity:1"
             d="m 1730.1602,-163.06641 -20.5079,-27.78125 v 27.78125 h -13.3437 v -77.27343 h 13.3437 v 45.22656 l 19.4141,-23.51563 h 16.6797 l -22.5313,25.32032 24.3907,30.24218 z" />
          <path
             id="path1989"
             style="font-style:normal;font-variant:normal;font-weight:bold;font-stretch:normal;font-size:112px;font-family:Consolas;-inkscape-font-specification:'Consolas Bold';fill:#000000;fill-opacity:1"
             d="m 1803.2773,-163.61328 q -3.6093,0.82031 -7.2734,1.3125 -3.6641,0.49219 -6.9453,0.49219 -5.4688,0 -9.4609,-1.14844 -3.9375,-1.14844 -6.5625,-3.5 -2.5704,-2.35156 -3.8282,-5.96094 -1.2031,-3.66406 -1.2031,-8.69531 v -27.125 h -14.9297 v -10.39063 h 14.9297 v -14.21875 l 13.6719,-3.55468 v 17.77343 h 21.6015 v 10.39063 h -21.6015 v 26.14062 q 0,4.75782 2.1875,7.21875 2.1875,2.40625 7.3281,2.40625 3.2813,0 6.3984,-0.54687 3.1172,-0.54688 5.6875,-1.25781 z" />
        </g>
      </g>
    </g>
    <path
       inkscape:connector-curvature="0"
       id="path826-3"
       d="m 453.76732,77.406329 2.78392,-2.786531 v -4.510249 -4.510245 l 2.85446,-2.857015 2.85447,-2.857013 -2.85447,-2.857014 -2.85446,-2.857015 v -4.512826 -4.512828 l -2.85702,-2.854464 -2.85701,-2.854465 h -3.34808 c -2.00355,0 -3.34808,0.05342 -3.34808,0.13301 0,0.07316 0.38741,1.199593 0.8609,2.503193 0.4735,1.3036 0.92393,2.5447 1.00097,2.758 l 0.14007,0.387819 h 2.38363 2.38363 v 4.478863 4.478863 l 2.82052,2.817884 2.82053,2.817885 -2.82053,2.823049 -2.82052,2.823049 v 4.546794 4.546791 h -2.38234 c -2.13782,0 -2.39232,0.02532 -2.4796,0.246795 -0.30162,0.765355 -1.90726,5.232503 -1.90726,5.306319 0,0.04834 1.53953,0.08788 3.42118,0.08788 h 3.42117 z"
       style="fill:#000000;fill-opacity:1;stroke-width:0.1410249" />
  </g>
</svg>
